<?xml version="1.0" encoding="UTF-8"?>
<!DOCTYPE svg PUBLIC "-//W3C//DTD SVG 1.1//EN" "http://www.w3.org/Graphics/SVG/1.1/DTD/svg11.dtd">
<svg xmlns="http://www.w3.org/2000/svg" version="1.1" width="667px" height="579px" style="shape-rendering:geometricPrecision; text-rendering:geometricPrecision; image-rendering:optimizeQuality; fill-rule:evenodd; clip-rule:evenodd" xmlns:xlink="http://www.w3.org/1999/xlink">
<g><path style="opacity:0.937" fill="#e6e6e6" d="M -0.5,17.5 C 96.5,17.5 193.5,17.5 290.5,17.5C 290.5,49.8333 290.5,82.1667 290.5,114.5C 205.499,114.333 120.499,114.5 35.5,115C 27.3333,123.167 19.1667,131.333 11,139.5C 10.5003,131.173 10.3336,122.84 10.5,114.5C 6.83333,114.5 3.16667,114.5 -0.5,114.5C -0.5,82.1667 -0.5,49.8333 -0.5,17.5 Z"/></g>
<g><path style="opacity:1" fill="#fefefe" d="M 7.5,27.5 C 99.1667,27.5 190.833,27.5 282.5,27.5C 282.5,52.8333 282.5,78.1667 282.5,103.5C 190.833,103.5 99.1667,103.5 7.5,103.5C 7.5,78.1667 7.5,52.8333 7.5,27.5 Z"/></g>
<g><path style="opacity:0.972" fill="#2f2e41" d="M 506.5,92.5 C 505.624,92.6309 504.957,92.2975 504.5,91.5C 504.295,85.5405 501.295,82.3739 495.5,82C 493.368,78.2359 490.868,74.7359 488,71.5C 487.797,67.5787 487.297,63.7454 486.5,60C 484.5,59.3333 482.5,59.3333 480.5,60C 475.069,62.5485 469.403,64.0485 463.5,64.5C 461.983,64.4894 460.816,63.8228 460,62.5C 459.333,60.1667 459.333,57.8333 460,55.5C 463.29,51.0876 466.456,46.5876 469.5,42C 478.424,40.42 487.424,40.0867 496.5,41C 503.319,42.1525 508.485,45.6525 512,51.5C 517.546,66.2141 515.713,79.8807 506.5,92.5 Z"/></g>
<g><path style="opacity:1" fill="#6d64ff" d="M 31.5,50.5 C 75.8333,50.5 120.167,50.5 164.5,50.5C 164.5,51.8333 164.5,53.1667 164.5,54.5C 120.167,54.5 75.8333,54.5 31.5,54.5C 31.5,53.1667 31.5,51.8333 31.5,50.5 Z"/></g>
<g><path style="opacity:0.983" fill="#fdb7b8" d="M 506.5,92.5 C 508.546,99.2378 512.88,103.905 519.5,106.5C 518.748,109.747 518.248,113.081 518,116.5C 513.508,119.327 508.675,121.494 503.5,123C 499.279,126.605 496.446,131.105 495,136.5C 493.753,133.671 492.253,131.005 490.5,128.5C 482.29,127.299 478.623,122.633 479.5,114.5C 480.503,109.483 480.503,104.483 479.5,99.5C 463.07,92.9702 457.737,81.3035 463.5,64.5C 469.403,64.0485 475.069,62.5485 480.5,60C 482.5,59.3333 484.5,59.3333 486.5,60C 487.297,63.7454 487.797,67.5787 488,71.5C 490.868,74.7359 493.368,78.2359 495.5,82C 501.295,82.3739 504.295,85.5405 504.5,91.5C 504.957,92.2975 505.624,92.6309 506.5,92.5 Z"/></g>
<g><path style="opacity:1" fill="#e6e6e6" d="M 31.5,64.5 C 108.5,64.5 185.5,64.5 262.5,64.5C 262.5,65.8333 262.5,67.1667 262.5,68.5C 185.5,68.5 108.5,68.5 31.5,68.5C 31.5,67.1667 31.5,65.8333 31.5,64.5 Z"/></g>
<g><path style="opacity:1" fill="#e7e7e7" d="M 31.5,78.5 C 108.5,78.5 185.5,78.5 262.5,78.5C 262.5,79.8333 262.5,81.1667 262.5,82.5C 185.5,82.5 108.5,82.5 31.5,82.5C 31.5,81.1667 31.5,79.8333 31.5,78.5 Z"/></g>
<g><path style="opacity:0.996" fill="#565988" d="M 519.5,106.5 C 530.849,108.337 541.849,111.504 552.5,116C 571.151,136.105 576.485,159.271 568.5,185.5C 570.149,187.65 571.982,189.65 574,191.5C 576.381,195.086 575.881,198.086 572.5,200.5C 571.372,214.473 568.705,228.14 564.5,241.5C 564.043,242.298 563.376,242.631 562.5,242.5C 556.587,241.315 550.587,239.982 544.5,238.5C 544.078,245.275 542.912,251.941 541,258.5C 540.392,260.066 539.558,261.4 538.5,262.5C 535.221,261.508 531.888,261.341 528.5,262C 509.657,268.034 490.323,270.7 470.5,270C 469.058,270.377 468.058,271.21 467.5,272.5C 465.876,274.137 464.876,273.803 464.5,271.5C 465.555,267.722 467.388,264.389 470,261.5C 470.993,258.592 471.493,255.592 471.5,252.5C 470.039,243.86 468.706,235.193 467.5,226.5C 462.183,230.289 456.85,230.122 451.5,226C 446.175,219.862 443.508,212.695 443.5,204.5C 444.857,205.685 446.357,206.685 448,207.5C 450.368,206.283 452.868,205.449 455.5,205C 457.635,203.444 457.968,201.611 456.5,199.5C 457.496,199.586 458.329,199.252 459,198.5C 459.667,196.833 459.667,195.167 459,193.5C 455.059,185.284 451.392,176.951 448,168.5C 447.184,167.177 446.017,166.511 444.5,166.5C 442.022,155.168 443.689,144.501 449.5,134.5C 459.264,127.389 469.264,120.723 479.5,114.5C 478.623,122.633 482.29,127.299 490.5,128.5C 492.253,131.005 493.753,133.671 495,136.5C 496.446,131.105 499.279,126.605 503.5,123C 508.675,121.494 513.508,119.327 518,116.5C 518.248,113.081 518.748,109.747 519.5,106.5 Z M 471.5,205.5 C 474.846,208.671 475.346,212.337 473,216.5C 472.452,212.83 471.952,209.163 471.5,205.5 Z"/></g>
<g><path style="opacity:0.959" fill="#e6e6e6" d="M 50.5,145.5 C 147.833,145.5 245.167,145.5 342.5,145.5C 342.5,177.5 342.5,209.5 342.5,241.5C 338.833,241.5 335.167,241.5 331.5,241.5C 331.831,249.86 331.498,258.193 330.5,266.5C 322.014,258.514 313.681,250.348 305.5,242C 220.501,241.5 135.501,241.333 50.5,241.5C 50.5,209.5 50.5,177.5 50.5,145.5 Z"/></g>
<g><path style="opacity:1" fill="#fefefe" d="M 59.5,155.5 C 150.833,155.5 242.167,155.5 333.5,155.5C 333.5,180.833 333.5,206.167 333.5,231.5C 242.167,231.5 150.833,231.5 59.5,231.5C 59.5,206.167 59.5,180.833 59.5,155.5 Z"/></g>
<g><path style="opacity:0.994" fill="#312f42" d="M 444.5,166.5 C 446.017,166.511 447.184,167.177 448,168.5C 451.392,176.951 455.059,185.284 459,193.5C 459.667,195.167 459.667,196.833 459,198.5C 458.329,199.252 457.496,199.586 456.5,199.5C 453.363,192.044 449.363,185.21 444.5,179C 442.888,178.28 441.388,178.446 440,179.5C 439.61,182.104 438.776,184.438 437.5,186.5C 436.566,182.627 435.066,178.961 433,175.5C 432.333,174.167 432.333,172.833 433,171.5C 436.786,169.69 440.619,168.023 444.5,166.5 Z"/></g>
<g><path style="opacity:1" fill="#6c63ff" d="M 81.5,177.5 C 125.5,177.5 169.5,177.5 213.5,177.5C 213.5,178.833 213.5,180.167 213.5,181.5C 169.5,181.5 125.5,181.5 81.5,181.5C 81.5,180.167 81.5,178.833 81.5,177.5 Z"/></g>
<g><path style="opacity:0.973" fill="#fab9b9" d="M 456.5,199.5 C 457.968,201.611 457.635,203.444 455.5,205C 452.868,205.449 450.368,206.283 448,207.5C 446.357,206.685 444.857,205.685 443.5,204.5C 440.903,198.71 438.903,192.71 437.5,186.5C 438.776,184.438 439.61,182.104 440,179.5C 441.388,178.446 442.888,178.28 444.5,179C 449.363,185.21 453.363,192.044 456.5,199.5 Z"/></g>
<g><path style="opacity:1" fill="#e6e6e6" d="M 81.5,191.5 C 158.167,191.5 234.833,191.5 311.5,191.5C 311.5,192.833 311.5,194.167 311.5,195.5C 234.833,195.5 158.167,195.5 81.5,195.5C 81.5,194.167 81.5,192.833 81.5,191.5 Z"/></g>
<g><path style="opacity:1" fill="#e7e7e7" d="M 81.5,205.5 C 158.167,205.5 234.833,205.5 311.5,205.5C 311.5,206.833 311.5,208.167 311.5,209.5C 234.833,209.5 158.167,209.5 81.5,209.5C 81.5,208.167 81.5,206.833 81.5,205.5 Z"/></g>
<g><path style="opacity:0.981" fill="#fbb7b7" d="M 562.5,242.5 C 561.455,249.345 559.789,256.011 557.5,262.5C 556.076,264.515 555.41,266.848 555.5,269.5C 549,268.458 542.667,266.958 536.5,265C 537.381,264.292 538.047,263.458 538.5,262.5C 539.558,261.4 540.392,260.066 541,258.5C 542.912,251.941 544.078,245.275 544.5,238.5C 550.587,239.982 556.587,241.315 562.5,242.5 Z"/></g>
<g><path style="opacity:0.984" fill="#2f2e41" d="M 538.5,262.5 C 538.047,263.458 537.381,264.292 536.5,265C 542.667,266.958 549,268.458 555.5,269.5C 555.41,266.848 556.076,264.515 557.5,262.5C 558.268,263.263 558.768,264.263 559,265.5C 560.039,284.894 557.706,303.894 552,322.5C 551.921,334.397 551.088,346.23 549.5,358C 551.56,362.636 553.226,367.469 554.5,372.5C 553.989,375.646 553.655,378.813 553.5,382C 554.189,394.158 554.689,406.324 555,418.5C 555.937,421.656 557.437,424.489 559.5,427C 564.828,427.497 569.162,429.831 572.5,434C 577.875,434.838 583.208,435.838 588.5,437C 589.126,437.75 589.626,438.584 590,439.5C 589.65,454.3 588.15,468.967 585.5,483.5C 582.225,492.732 576.559,500.065 568.5,505.5C 567.353,505.182 566.519,504.516 566,503.5C 564.748,496.986 565.914,490.986 569.5,485.5C 569.547,483.962 568.88,482.962 567.5,482.5C 564.928,476.744 562.094,471.078 559,465.5C 557.523,461.57 556.356,457.57 555.5,453.5C 549.069,456.221 547.069,461.055 549.5,468C 546.324,472.395 545.658,477.228 547.5,482.5C 550.99,494.173 546.99,501.34 535.5,504C 531.014,504.623 526.514,505.123 522,505.5C 517.111,506.315 513.944,504.481 512.5,500C 515.805,494.507 518.472,488.673 520.5,482.5C 521.689,479.286 523.023,476.12 524.5,473C 523.643,472.311 522.977,471.478 522.5,470.5C 523.638,467.087 524.971,463.754 526.5,460.5C 526.552,452.948 526.386,445.281 526,437.5C 525.118,434.211 524.452,430.877 524,427.5C 509.358,412.526 494.358,397.859 479,383.5C 466.591,366.703 461.425,347.87 463.5,327C 463.702,308.743 465.035,290.576 467.5,272.5C 468.058,271.21 469.058,270.377 470.5,270C 490.323,270.7 509.657,268.034 528.5,262C 531.888,261.341 535.221,261.508 538.5,262.5 Z M 517.5,372.5 C 509.904,368.721 505.571,362.554 504.5,354C 506.411,346.855 508.245,339.688 510,332.5C 510.313,339.868 510.98,347.201 512,354.5C 513,355.833 514,357.167 515,358.5C 515.882,363.179 516.715,367.846 517.5,372.5 Z M 567.5,482.5 C 560.833,482.5 554.167,482.5 547.5,482.5C 545.658,477.228 546.324,472.395 549.5,468C 547.069,461.055 549.069,456.221 555.5,453.5C 556.356,457.57 557.523,461.57 559,465.5C 562.094,471.078 564.928,476.744 567.5,482.5 Z"/></g>
<g><path style="opacity:0.977" fill="#e6e6e6" d="M -0.5,273.5 C 96.5,273.5 193.5,273.5 290.5,273.5C 290.5,305.5 290.5,337.5 290.5,369.5C 205.499,369.333 120.499,369.5 35.5,370C 27.3333,378.167 19.1667,386.333 11,394.5C 10.5003,386.173 10.3336,377.84 10.5,369.5C 6.83333,369.5 3.16667,369.5 -0.5,369.5C -0.5,337.5 -0.5,305.5 -0.5,273.5 Z"/></g>
<g><path style="opacity:1" fill="#fefefe" d="M 7.5,283.5 C 99.1667,283.5 190.833,283.5 282.5,283.5C 282.5,308.833 282.5,334.167 282.5,359.5C 190.833,359.5 99.1667,359.5 7.5,359.5C 7.5,334.167 7.5,308.833 7.5,283.5 Z"/></g>
<g><path style="opacity:0.951" fill="#6b62ff" d="M 616.5,328.5 C 615.791,327.596 614.791,327.263 613.5,327.5C 608.695,326.868 605.528,324.201 604,319.5C 602.676,307.825 607.843,302.325 619.5,303C 625.539,304.873 628.873,309.039 629.5,315.5C 628.452,323.215 624.119,327.548 616.5,328.5 Z"/></g>
<g><path style="opacity:1" fill="#b1acff" d="M 31.5,305.5 C 75.8333,305.5 120.167,305.5 164.5,305.5C 164.5,307.167 164.5,308.833 164.5,310.5C 120.167,310.5 75.8333,310.5 31.5,310.5C 31.5,308.833 31.5,307.167 31.5,305.5 Z"/></g>
<g><path style="opacity:1" fill="#6c63ff" d="M 32.5,306.5 C 76.1667,306.5 119.833,306.5 163.5,306.5C 163.5,307.5 163.5,308.5 163.5,309.5C 119.833,309.5 76.1667,309.5 32.5,309.5C 32.5,308.5 32.5,307.5 32.5,306.5 Z"/></g>
<g><path style="opacity:1" fill="#eeeeee" d="M 31.5,319.5 C 108.5,319.5 185.5,319.5 262.5,319.5C 262.5,321.167 262.5,322.833 262.5,324.5C 185.5,324.5 108.5,324.5 31.5,324.5C 31.5,322.833 31.5,321.167 31.5,319.5 Z"/></g>
<g><path style="opacity:0.895" fill="#e5e5e5" d="M 613.5,327.5 C 614.791,327.263 615.791,327.596 616.5,328.5C 616.334,338.172 616.5,347.839 617,357.5C 622.182,338.003 634.682,329.669 654.5,332.5C 642.49,343.842 630.157,354.842 617.5,365.5C 616.333,393.494 616.167,421.494 617,449.5C 619.683,434.423 627.517,423.09 640.5,415.5C 643.193,401.487 650.859,397.653 663.5,404C 664.399,405.652 665.399,407.152 666.5,408.5C 666.5,411.833 666.5,415.167 666.5,418.5C 661.452,426.126 654.785,427.959 646.5,424C 644.383,422.269 642.883,420.102 642,417.5C 628.827,425.817 621.16,437.817 619,453.5C 617.14,464.163 616.64,474.83 617.5,485.5C 629.061,486.482 640.394,488.649 651.5,492C 655.461,492.608 656.961,494.774 656,498.5C 652.372,501.49 648.205,503.323 643.5,504C 611.735,509.307 579.735,511.807 547.5,511.5C 521.085,511.39 494.752,509.89 468.5,507C 459.591,506.018 450.925,504.018 442.5,501C 437.675,498.865 437.341,496.199 441.5,493C 447.697,490.701 454.031,488.867 460.5,487.5C 461.666,476.181 461.832,464.848 461,453.5C 448.992,442.99 437.158,432.323 425.5,421.5C 442.479,418.239 454.313,424.573 461,440.5C 461.5,431.506 461.666,422.506 461.5,413.5C 462.5,413.5 463.5,413.5 464.5,413.5C 464.333,438.169 464.5,462.836 465,487.5C 483.352,484.706 501.852,483.04 520.5,482.5C 518.472,488.673 515.805,494.507 512.5,500C 513.944,504.481 517.111,506.315 522,505.5C 526.514,505.123 531.014,504.623 535.5,504C 546.99,501.34 550.99,494.173 547.5,482.5C 554.167,482.5 560.833,482.5 567.5,482.5C 568.88,482.962 569.547,483.962 569.5,485.5C 565.914,490.986 564.748,496.986 566,503.5C 566.519,504.516 567.353,505.182 568.5,505.5C 576.559,500.065 582.225,492.732 585.5,483.5C 594.774,483.396 603.941,484.062 613,485.5C 613.5,432.834 613.667,380.168 613.5,327.5 Z M 567.5,482.5 C 560.833,482.5 554.167,482.5 547.5,482.5C 545.658,477.228 546.324,472.395 549.5,468C 547.069,461.055 549.069,456.221 555.5,453.5C 556.356,457.57 557.523,461.57 559,465.5C 562.094,471.078 564.928,476.744 567.5,482.5 Z"/></g>
<g><path style="opacity:1" fill="#eeeeee" d="M 31.5,333.5 C 108.5,333.5 185.5,333.5 262.5,333.5C 262.5,335.167 262.5,336.833 262.5,338.5C 185.833,338.667 109.166,338.5 32.5,338C 31.6198,336.644 31.2865,335.144 31.5,333.5 Z"/></g>
<g><path style="opacity:0.965" fill="#6c62fe" d="M 464.5,413.5 C 463.5,413.5 462.5,413.5 461.5,413.5C 451.444,409.969 448.611,403.302 453,393.5C 459.871,386.506 466.871,386.172 474,392.5C 479.191,403.46 476.024,410.46 464.5,413.5 Z"/></g>
</svg>
