<svg id="Group_102" data-name="Group 102" xmlns="http://www.w3.org/2000/svg" xmlns:xlink="http://www.w3.org/1999/xlink" width="164.862" height="200.869" viewBox="0 0 164.862 200.869">
  <defs>
    <linearGradient id="linear-gradient" x1="60.896" y1="1.049" x2="60.839" y2="0.05" gradientUnits="objectBoundingBox">
      <stop offset="0" stop-color="#623fe9"/>
      <stop offset="0.026" stop-color="#6144e9"/>
      <stop offset="0.367" stop-color="#5f84ed"/>
      <stop offset="0.654" stop-color="#5eb2f1"/>
      <stop offset="0.874" stop-color="#5dcff3"/>
      <stop offset="1" stop-color="#5ddaf4"/>
    </linearGradient>
    <linearGradient id="linear-gradient-2" x1="0.258" y1="1.112" x2="0.224" y2="0.114" gradientUnits="objectBoundingBox">
      <stop offset="0" stop-color="#56408b"/>
      <stop offset="0.148" stop-color="#694997"/>
      <stop offset="1" stop-color="#d77edb"/>
    </linearGradient>
  </defs>
  <g id="Group_99" data-name="Group 99" transform="translate(92.54 122.139)">
    <path id="Path_127" data-name="Path 127" d="M1469.965,2028.538c-.1.049-.2.1-.3.144-3.093,1.48-4.735,1.231-7.75-.16a31.533,31.533,0,0,1-7.767-4.833,16.22,16.22,0,0,1-5.639-9.9,3.519,3.519,0,0,1,.414-2.517,2.826,2.826,0,0,1,3.268-.678,9.894,9.894,0,0,1,2.883,2.1,3.275,3.275,0,0,0,1.272.815,1.191,1.191,0,0,0,1.343-.448c.4-.707-.285-1.521-.91-2.041-1.446-1.2-2.8-1.9-4.317-2.968a14.262,14.262,0,0,1-4.711-5.058,7.467,7.467,0,0,1-.192-6.719,4.084,4.084,0,0,1,1.384-1.578,4.929,4.929,0,0,1,3.653-.373,35.6,35.6,0,0,0,3.662.861c2.953.306,4.113-1.771,4.054-4.489-.039-1.822-.627-3.593-.733-5.411-.186-3.2,1.4-6.615,4.3-7.985s6.952-.059,7.991,2.977c1.128,3.3-1.447,7,.257,10.156a9.613,9.613,0,0,0,2.793,3.05c1.619,1,3.952-.176,5.837-.09a1.708,1.708,0,0,1,1.168.377,1.611,1.611,0,0,1,.365.842,6.979,6.979,0,0,1-2.111,6.363c-1.952,1.777-5.337,2.682-6.167,5.464-.516,1.727-.293,6.034,2.457,5.6,1.032-.164,1.722-1.184,2.712-1.519a2.749,2.749,0,0,1,3.173,1.568,4.817,4.817,0,0,1-.092,3.767,15.768,15.768,0,0,1-3.618,4.885C1475.725,2023.759,1473.811,2026.641,1469.965,2028.538Z" transform="translate(-1446.849 -1976.755)" fill="url(#linear-gradient)"/>
    <g id="Group_33" data-name="Group 33" transform="translate(18.35 11.63)">
      <rect id="Rectangle_45" data-name="Rectangle 45" width="1.355" height="67.1" transform="translate(0)" fill="#56408b"/>
    </g>
    <g id="Group_34" data-name="Group 34" transform="translate(10.764 22.78)">
      <path id="Path_128" data-name="Path 128" d="M1463.238,2007.608l-8.263-8.263.958-.958,7.306,7.306,7.3-7.306.958.958Z" transform="translate(-1454.974 -1998.387)" fill="#56408b"/>
    </g>
    <g id="Group_35" data-name="Group 35" transform="translate(10.764 38.415)">
      <path id="Path_129" data-name="Path 129" d="M1463.238,2022.456l-8.263-8.263.958-.958,7.306,7.306,7.3-7.306.958.958Z" transform="translate(-1454.974 -2013.234)" fill="#56408b"/>
    </g>
  </g>
  <g id="Group_100" data-name="Group 100" transform="translate(114.735 81.449)">
    <path id="Path_130" data-name="Path 130" d="M1430.011,2010.528c.138.069.277.135.416.2,4.325,2.067,6.623,1.721,10.837-.223a44.146,44.146,0,0,0,10.862-6.759c4.071-3.6,7.229-8.458,7.886-13.85a4.921,4.921,0,0,0-.578-3.52c-.986-1.351-3.009-1.552-4.57-.949a13.824,13.824,0,0,0-4.032,2.941,4.562,4.562,0,0,1-1.779,1.139,1.668,1.668,0,0,1-1.879-.628c-.561-.988.4-2.125,1.273-2.853,2.021-1.684,3.917-2.658,6.038-4.151a19.972,19.972,0,0,0,6.588-7.074,10.443,10.443,0,0,0,.267-9.4,5.713,5.713,0,0,0-1.936-2.207,6.89,6.89,0,0,0-5.107-.521,48.973,48.973,0,0,1-5.122,1.2c-4.129.43-5.751-2.476-5.67-6.276.055-2.547.879-5.023,1.025-7.567.259-4.478-1.951-9.251-6.008-11.166s-9.723-.082-11.174,4.164c-1.577,4.613,2.023,9.794-.359,14.2a13.47,13.47,0,0,1-3.906,4.264c-2.265,1.4-5.526-.245-8.162-.125a2.382,2.382,0,0,0-1.633.528,2.242,2.242,0,0,0-.509,1.176,9.759,9.759,0,0,0,2.953,8.9c2.729,2.484,7.462,3.752,8.623,7.641.721,2.417.409,8.439-3.436,7.828-1.443-.23-2.408-1.656-3.791-2.124a3.846,3.846,0,0,0-4.437,2.192,6.735,6.735,0,0,0,.127,5.268c1.052,2.652,3.079,4.777,5.06,6.831C1421.957,2003.846,1424.633,2007.877,1430.011,2010.528Z" transform="translate(-1412.209 -1938.114)" fill="url(#linear-gradient-2)"/>
    <g id="Group_37" data-name="Group 37" transform="translate(22.843 16.263)">
      <rect id="Rectangle_46" data-name="Rectangle 46" width="1.355" height="103.156" transform="translate(0)" fill="#56408b"/>
    </g>
    <g id="Group_38" data-name="Group 38" transform="translate(12.155 32.047)">
      <path id="Path_131" data-name="Path 131" d="M1438.05,1980.87l11.364-11.364-.958-.958-10.407,10.406-10.406-10.406-.958.958Z" transform="translate(-1426.685 -1968.548)" fill="#56408b"/>
    </g>
    <g id="Group_39" data-name="Group 39" transform="translate(12.155 53.91)">
      <path id="Path_132" data-name="Path 132" d="M1438.05,2001.632l11.364-11.364-.958-.958-10.407,10.406-10.406-10.406-.958.958Z" transform="translate(-1426.685 -1989.31)" fill="#56408b"/>
    </g>
  </g>
  <g id="Group_101" data-name="Group 101" transform="translate(0)">
    <rect id="Rectangle_85" data-name="Rectangle 85" width="8.118" height="8.835" transform="translate(57.935 184.512)" fill="#fff"/>
    <rect id="Rectangle_86" data-name="Rectangle 86" width="7.175" height="8.133" transform="matrix(0.848, -0.531, 0.531, 0.848, 80.271, 184.207)" fill="#fff"/>
    <path id="Path_196" data-name="Path 196" d="M1477.721,2052.45h9.534l17.662-10.137-5.017-8.33-.9.8.692,3.017-7.817,4.509-1.807-2.608-1.606.8-1.2,5.018-3.364,2.81-2.465.161a3.961,3.961,0,0,0-3.706,3.954Z" transform="translate(-1409.041 -1851.581)" fill="#85b9e5"/>
    <path id="Path_197" data-name="Path 197" d="M1485.524,2003.149l19.752,33.346-7.019,4.092-13.756-16.1Z" transform="translate(-1416.539 -1853.216)" fill="#56408b"/>
    <path id="Path_198" data-name="Path 198" d="M1477.721,2052.156h9.534l17.662-10.136-1.511-2.507-18.045,10.215c-.6-2.427-1.47-1.687-1.47-1.687l-2.465.16A3.964,3.964,0,0,0,1477.721,2052.156Z" transform="translate(-1409.041 -1851.288)" fill="#56408b"/>
    <path id="Path_199" data-name="Path 199" d="M1504.415,2007.624l-2.651-4.475-1.023,21.334,2.713,3.176Z" transform="translate(-1432.78 -1853.216)" fill="#2b2046" opacity="0.3"/>
    <path id="Path_200" data-name="Path 200" d="M1500.032,1959.384v3.887a19.975,19.975,0,0,0,.68,5.17l10.485,39.166s-.257,31.119.639,35.975h10.187l1.864-38.858-.909-32.773h0a26.537,26.537,0,0,0,4.249-14.3l.011-2.576h-27.206Z" transform="translate(-1454.856 -1855.766)" fill="#56408b"/>
    <path id="Path_201" data-name="Path 201" d="M1525.96,2007.166,1515.475,1968a19.886,19.886,0,0,1-.673-4.624l-2.866,0a19.929,19.929,0,0,0,.673,4.626l10.485,39.165s-.257,31.119.639,35.975h2.865C1525.7,2038.285,1525.96,2007.166,1525.96,2007.166Z" transform="translate(-1466.753 -1855.325)" fill="#2b2046" opacity="0.3"/>
    <path id="Path_202" data-name="Path 202" d="M1534.114,2052.145h-30.642v-1.154a3.7,3.7,0,0,1,3.7-3.7h1.313l10.785-7.561h1.392l-.079,2.228,12.018.08.477-2.308h1.035Z" transform="translate(-1465.354 -1851.276)" fill="#85b9e5"/>
    <path id="Path_203" data-name="Path 203" d="M1503.472,2050.61v1.154h30.642v-2.229H1510.53a2.445,2.445,0,0,0-2.045-2.626h-1.313A3.7,3.7,0,0,0,1503.472,2050.61Z" transform="translate(-1465.354 -1850.896)" fill="#56408b"/>
    <path id="Path_204" data-name="Path 204" d="M1523.275,1924.816h0a4.578,4.578,0,0,1,3.843-2.09h5.393a4.581,4.581,0,0,1,3.153,1.258l.266.254h8.914v2.219l-21.569-.012Z" transform="translate(-1496.938 -1857.481)" fill="#fff"/>
    <path id="Path_205" data-name="Path 205" d="M1516.073,1892.289l-8.655,6.8-7.386-9.394,3.932-7.585a5.958,5.958,0,0,1,6.865-3h0l.9,6.075a9.188,9.188,0,0,0,2.293,4.844Z" transform="translate(-1443.691 -1859.805)" fill="#fff"/>
    <g id="Group_90" data-name="Group 90" transform="translate(0 41.836)">
      <path id="Rectangle_87" data-name="Rectangle 87" d="M.788,0h30.76a.788.788,0,0,1,.788.788V2.221a.787.787,0,0,1-.787.787H.787A.787.787,0,0,1,0,2.221V.788A.788.788,0,0,1,.788,0Z" transform="translate(13.592 26.342) rotate(-0.037)" fill="#f5f7f9"/>
      <path id="Path_206" data-name="Path 206" d="M1557.489,1926.865a1.371,1.371,0,0,0-.34-.884,1.4,1.4,0,0,1-1.4,1.393l-29.536.019a1.374,1.374,0,0,1-1.06-.514v.215a1.4,1.4,0,0,0,1.4,1.4l29.537-.019a1.4,1.4,0,0,0,1.4-1.4Z" transform="translate(-1511.561 -1899.145)" fill="#dfe2ec"/>
      <path id="Path_207" data-name="Path 207" d="M1569.311,1926.495l-.049.028a.423.423,0,0,1-.576-.162l-14.154-25.206a.423.423,0,0,1,.161-.575l.051-.029a.422.422,0,0,1,.575.161l14.154,25.208A.422.422,0,0,1,1569.311,1926.495Z" transform="translate(-1554.478 -1900.496)" fill="#dfe2ec"/>
      <g id="Group_87" data-name="Group 87" transform="translate(33.306 27.131)">
        <rect id="Rectangle_88" data-name="Rectangle 88" width="2.767" height="1.061" transform="translate(0)" fill="#191c3c"/>
      </g>
      <g id="Group_88" data-name="Group 88" transform="translate(36.585 27.129)">
        <rect id="Rectangle_89" data-name="Rectangle 89" width="2.767" height="1.061" transform="translate(0)" fill="#191c3c"/>
      </g>
      <g id="Group_89" data-name="Group 89" transform="translate(19.036 27.142)">
        <rect id="Rectangle_90" data-name="Rectangle 90" width="2.767" height="1.061" transform="translate(0)" fill="#191c3c"/>
      </g>
    </g>
    <path id="Path_208" data-name="Path 208" d="M1515.623,1881.04l-.131-1.884a5.939,5.939,0,0,0-3.571,2.945l-3.932,7.585,2.036,2.589,1.941-1.841A11.823,11.823,0,0,0,1515.623,1881.04Z" transform="translate(-1451.648 -1859.792)" fill="#525d7a" opacity="0.15"/>
    <path id="Path_209" data-name="Path 209" d="M1506.571,1874.276v5.895l2.07,1.194.144,5.731,1.845-.8,2.369,3.715a4,4,0,0,0,5.671,1.123l3-2.11a11.825,11.825,0,0,0,4.988-8.76l.6-7.816-1.118-.934a20.682,20.682,0,0,0-17.219-4.421l-.923.181-.946,3.415A13.433,13.433,0,0,0,1506.571,1874.276Z" transform="translate(-1461.768 -1860.452)" fill="#fff"/>
    <path id="Path_210" data-name="Path 210" d="M1527.265,1872.45l-1.118-.934a20.682,20.682,0,0,0-17.219-4.421l-.923.181-.946,3.414a13.443,13.443,0,0,0-.487,3.585v.492a4.823,4.823,0,0,0,1.451-.5c.538-.3.526-.442,1.038-.141.333.2.6.5.951.7a4.97,4.97,0,0,0,4.56.174.582.582,0,0,1,.407-.1c.144.041.225.19.291.325,1.729,3.593,3.468,3.267,3.38,2.292a3.473,3.473,0,0,1,.773-2.738,3.007,3.007,0,0,1,3.266-.822c1.037.527,1.985,1.024,2.268,2.152a13.276,13.276,0,0,1,.459,4.457c-.173.874,1.15.918,1.245-.3Z" transform="translate(-1461.768 -1860.452)" fill="#525d7a" opacity="0.15"/>
    <path id="Path_211" data-name="Path 211" d="M1533.706,1876.525c-.037-1.365-.011-2.735-.175-4.09a16.4,16.4,0,0,0-3.336-8.312,4.254,4.254,0,0,0-3.2-1.6c-.6.016-1.288.325-1.888.143-.529-.16-.837-.7-1.233-1.043a3.878,3.878,0,0,0-2.136-.791,11.2,11.2,0,0,0-8.325,2.554c-.748.633-1.408,1.361-2.109,2.044-1.788,1.741-3.728,3.693-6.422,2.855-.084-.026-.2-.044-.242.034a.191.191,0,0,0-.016.091,3.909,3.909,0,0,0,1.579,2.942,9.4,9.4,0,0,0,3.1,1.479,8.372,8.372,0,0,0,2.2.455,4.823,4.823,0,0,0,2.5-.609c.538-.3.527-.442,1.038-.141.333.2.6.5.951.7a4.97,4.97,0,0,0,4.56.174.583.583,0,0,1,.407-.1.532.532,0,0,1,.291.325c.718,1.545.861,3.294,1.446,4.894a.733.733,0,0,0,.272.407.768.768,0,0,0,.471.051l1.769-.185c-.174-.963-.49-1.9-.577-2.876a3.473,3.473,0,0,1,.773-2.738,2.827,2.827,0,0,1,3.232-.424,4.133,4.133,0,0,1,2.017,2.716,7.948,7.948,0,0,1-.031,3.462,3.176,3.176,0,0,0,.151,2.578,2.721,2.721,0,0,0,1.284.771q1.128.406,2.283.726A45.921,45.921,0,0,1,1533.706,1876.525Z" transform="translate(-1466.802 -1860.767)" fill="#413068"/>
    <g id="Group_91" data-name="Group 91" transform="translate(37.825)">
      <path id="Path_212" data-name="Path 212" d="M1511.307,1867.335c.7-.682,1.362-1.411,2.109-2.044a11.2,11.2,0,0,1,8.325-2.554,3.879,3.879,0,0,1,2.136.791c.4.345.7.883,1.233,1.045.6.181,1.286-.129,1.888-.144a4.255,4.255,0,0,1,3.2,1.6,16.4,16.4,0,0,1,3.336,8.312c.163,1.355.138,2.725.175,4.09.041,1.5.182,3,.371,4.491.091.025.178.06.268.085a45.921,45.921,0,0,1-.639-6.486c-.037-1.365-.011-2.735-.175-4.09a16.4,16.4,0,0,0-3.336-8.312,4.254,4.254,0,0,0-3.2-1.6c-.6.016-1.288.325-1.888.143-.529-.16-.837-.7-1.233-1.043a3.878,3.878,0,0,0-2.136-.791,11.2,11.2,0,0,0-8.325,2.554c-.748.633-1.408,1.361-2.109,2.044-1.788,1.741-3.728,3.693-6.422,2.855-.084-.026-.2-.044-.242.034a.191.191,0,0,0-.016.091,3.4,3.4,0,0,0,.607,1.852C1507.745,1870.826,1509.6,1869,1511.307,1867.335Z" transform="translate(-1504.627 -1860.767)" fill="#413068"/>
      <path id="Path_213" data-name="Path 213" d="M1508.288,1877.166c-.037.3-.084.6-.143.9a4.128,4.128,0,0,0-.048,2.167c.017-.085.031-.174.048-.257A8.775,8.775,0,0,0,1508.288,1877.166Z" transform="translate(-1482.144 -1859.897)" fill="#413068"/>
      <path id="Path_214" data-name="Path 214" d="M1513.317,1877.045a8.576,8.576,0,0,0,.179,1.008l.4-.042c-.145-.795-.359-1.576-.488-2.373A4.477,4.477,0,0,0,1513.317,1877.045Z" transform="translate(-1493.307 -1859.978)" fill="#413068"/>
    </g>
    <path id="Path_215" data-name="Path 215" d="M1522.439,1890.2l.141-.1c-.158-.311-.338-.612-.521-.906l-1.833-2.941a3.536,3.536,0,0,0-1.883-1.788,2.939,2.939,0,0,0-1.626.163,8.91,8.91,0,0,0-2.119,1.045l2.169,3.4A4,4,0,0,0,1522.439,1890.2Z" transform="translate(-1465.538 -1859.513)" fill="#413068"/>
    <path id="Path_216" data-name="Path 216" d="M1521.445,1890.642c-.111-.218-.238-.431-.368-.638l-1.292-2.073a2.493,2.493,0,0,0-1.328-1.261,2.062,2.062,0,0,0-1.146.116,5.977,5.977,0,0,0-.915.4l1.129,1.771a3.978,3.978,0,0,0,3.708,1.817c.036-.023.076-.037.111-.062Z" transform="translate(-1466.296 -1859.395)" fill="#f6f6f6"/>
    <path id="Path_217" data-name="Path 217" d="M1527.232,1955.076h-27.206v8.195c0,.144.025.285.027.43,7.943,1.063,19.328-5.567,27.124-4.63a6.5,6.5,0,0,0,.044-1.418Z" transform="translate(-1454.85 -1855.766)" fill="#2b2046" opacity="0.3"/>
    <path id="Path_218" data-name="Path 218" d="M1524.561,1891.161l2.874,4.213a26.659,26.659,0,0,1,2.3,5.229,30.427,30.427,0,0,1,1.95,8.529v4.633a24.477,24.477,0,0,1-.563,5.215l-3.075,14.062a40.776,40.776,0,0,0-.623,13.787l1.993,14.893c-8.357-6.041-26.656,5.711-35.728.191l5.017-26.813a70.892,70.892,0,0,1,.776-8.219l1.271-8.285a44.476,44.476,0,0,1,10.514-22.571l1.675-1.911Z" transform="translate(-1452.613 -1859.155)" fill="#85b9e5"/>
    <g id="Group_92" data-name="Group 92" transform="translate(70.32 32.006)" opacity="0.15">
      <path id="Path_219" data-name="Path 219" d="M1500.481,1900.6a26.629,26.629,0,0,0-2.3-5.229l-2.873-4.213-1.628.414,2.591,3.8a26.629,26.629,0,0,1,2.3,5.229,30.428,30.428,0,0,1,1.95,8.529v4.633a24.415,24.415,0,0,1-.563,5.215l-3.075,14.062a40.77,40.77,0,0,0-.623,13.787l1.853,13.848a8.417,8.417,0,0,1,2.05,1.045l-1.993-14.893a40.767,40.767,0,0,1,.623-13.787l3.075-14.062a24.478,24.478,0,0,0,.563-5.215v-4.633A30.429,30.429,0,0,0,1500.481,1900.6Z" transform="translate(-1493.684 -1891.161)" fill="#312075"/>
    </g>
    <path id="Path_220" data-name="Path 220" d="M1529.408,1906.588l-6.7,24.454-24.931.631-.716,4.323,26.276,3.873a7.941,7.941,0,0,0,8.409-4.623l10.705-24.027a5.49,5.49,0,0,0-3.319-7.456l-2.749-.893A5.491,5.491,0,0,0,1529.408,1906.588Z" transform="translate(-1467.422 -1858.549)" fill="#85b9e5"/>
    <path id="Path_221" data-name="Path 221" d="M1539.988,1911.91l-9.394,21.083a7.941,7.941,0,0,1-8.409,4.623l-25.035-3.691-.286,1.728,26.276,3.873a7.941,7.941,0,0,0,8.409-4.623l10.705-24.027C1544.5,1906.609,1540.576,1911.1,1539.988,1911.91Z" transform="translate(-1467.223 -1858.206)" fill="#312075" opacity="0.15"/>
    <path id="Path_222" data-name="Path 222" d="M1557.624,1934.321l-10.506-1.85-4.715-1.671-1.935-2.7a2.3,2.3,0,0,1,.28-3l.4-.384,4.18,4.178,11.46-.12,1.451,2.341Z" transform="translate(-1527.983 -1857.376)" fill="#fff"/>
    <path id="Path_223" data-name="Path 223" d="M1557.388,1932.969l-10.506-1.85-.532-.188a11.619,11.619,0,0,1-6.313-5.379h0v1.807l2.135,3,4.709,2.067,10.506,1.85.615-3.211-.191-.309Z" transform="translate(-1527.747 -1857.331)" fill="#525d7a" opacity="0.15"/>
  </g>
</svg>
